<svg xmlns="http://www.w3.org/2000/svg" viewBox="0 0 24 24" width="32" height="32" color="#ffffff" fill="none">
    <path d="M11.998 1.25C17.9351 1.25 22.748 6.06294 22.748 12C22.748 17.9371 17.9351 22.75 11.998 22.75C6.06099 22.75 1.24805 17.9371 1.24805 12C1.24805 6.06294 6.06099 1.25 11.998 1.25ZM11.998 2.75C6.88942 2.75 2.74805 6.89137 2.74805 12C2.74805 17.1086 6.88942 21.25 11.998 21.25C17.1066 21.25 21.248 17.1086 21.248 12C21.248 6.89137 17.1066 2.75 11.998 2.75ZM14.4677 8.46973C14.7606 8.17685 15.2354 8.17686 15.5283 8.46973C15.8211 8.76261 15.8211 9.2374 15.5283 9.53027L13.0576 12L15.5273 14.4697C15.8201 14.7626 15.8202 15.2374 15.5273 15.5303C15.2344 15.823 14.7596 15.8231 14.4668 15.5303L11.998 13.0605L9.5293 15.5303C9.23649 15.8231 8.76168 15.8229 8.46875 15.5303C8.17584 15.2374 8.17588 14.7626 8.46875 14.4697L10.9375 12L8.46778 9.53027C8.17491 9.23737 8.1749 8.76261 8.46778 8.46973C8.76068 8.17686 9.23544 8.17685 9.52832 8.46973L11.998 10.9395L14.4677 8.46973Z" fill="currentColor" />
</svg>